<?xml version="1.0" encoding="UTF-8"?>
<svg id="Layer_1" xmlns="http://www.w3.org/2000/svg" version="1.1" viewBox="0 0 16 16">
  <!-- Generator: Adobe Illustrator 29.0.1, SVG Export Plug-In . SVG Version: 2.1.0 Build 192)  -->
  <defs>
    <style>
      .st0 {
        fill: #cbd5e1;
      }
    </style>
  </defs>
  <path class="st0" d="M14,8.5l-4.5,4.5c-.1.1-.3.2-.5.2s-.4,0-.5-.2c-.1-.1-.2-.3-.2-.5s0-.4.2-.5l3.2-3.2H2.5c-.2,0-.4,0-.5-.2s-.2-.3-.2-.5,0-.4.2-.5c.1-.1.3-.2.5-.2h9.2l-3.2-3.2c-.1-.1-.2-.3-.2-.5s0-.4.2-.5c.1-.1.3-.2.5-.2s.4,0,.5.2l4.5,4.5c0,0,.1.2.2.2,0,0,0,.2,0,.3,0,0,0,.2,0,.3s0,.2-.2.2Z"/>
</svg>